<svg width="60" height="60" viewBox="0 0 60 60" fill="none" xmlns="http://www.w3.org/2000/svg">
<circle cx="30" cy="30" r="30" fill="white"/>
<circle cx="30" cy="30" r="29.75" stroke="black" stroke-opacity="0.7" stroke-width="0.5"/>
<path d="M32 27C33.1046 27 34 27.8954 34 29C34 30.1046 33.1046 31 32 31H30V36H25V38C25 39.1046 24.1046 40 23 40C21.8954 40 21 39.1046 21 38V36H16L16 31H18C19.1046 31 20 30.1046 20 29C20 27.8954 19.1046 27 18 27L16 27V22L21 22V24C21 25.1046 21.8954 26 23 26C24.1046 26 25 25.1046 25 24V22H30V27H32Z" fill="#554CCD" stroke="black" stroke-width="0.5"/>
<path d="M35 20C35 18.8954 35.8954 18 37 18C38.1046 18 39 18.8954 39 20V22H44V27H46C47.1046 27 48 27.8954 48 29C48 30.1046 47.1046 31 46 31H44V36H39V34C39 32.8954 38.1046 32 37 32C35.8954 32 35 32.8954 35 34V36H30V31H32C33.1046 31 34 30.1046 34 29C34 27.8954 33.1046 27 32 27H30V22H35V20Z" fill="#E7D3EE" stroke="black" stroke-width="0.5"/>
<line x1="27.8432" y1="17.5428" x2="24.765" y2="9.08555" stroke="black" stroke-width="0.5"/>
<line x1="30.75" y1="18" x2="30.75" y2="13" stroke="black" stroke-width="0.5"/>
<line x1="33.7651" y1="17.3718" x2="36.8433" y2="8.91454" stroke="black" stroke-width="0.5"/>
<line x1="24.7651" y1="50.3718" x2="27.8433" y2="41.9145" stroke="black" stroke-width="0.5"/>
<line x1="30.75" y1="46" x2="30.75" y2="41" stroke="black" stroke-width="0.5"/>
<line x1="36.8432" y1="50.5428" x2="33.765" y2="42.0855" stroke="black" stroke-width="0.5"/>
</svg>
