<svg width="25" height="25" viewBox="0 0 25 25" fill="none" xmlns="http://www.w3.org/2000/svg">
<circle cx="12.5" cy="12.5" r="11.5" fill="white" stroke="#7A0505" stroke-width="2"/>
<path d="M10.6393 11.928V11.384C10.7993 11.32 11.0126 11.256 11.2793 11.192C11.546 11.1173 11.8286 11.0533 12.1273 11C12.426 10.9467 12.7193 10.904 13.0073 10.872C13.306 10.8293 13.5673 10.808 13.7913 10.808L14.0793 11L12.6393 17.896H13.7593V18.44C13.6206 18.536 13.4553 18.6267 13.2633 18.712C13.082 18.7973 12.8846 18.872 12.6713 18.936C12.4686 19 12.2606 19.048 12.0473 19.08C11.834 19.1227 11.6313 19.144 11.4393 19.144C11.034 19.144 10.7513 19.0693 10.5913 18.92C10.442 18.76 10.3673 18.5893 10.3673 18.408C10.3673 18.1947 10.3833 17.9867 10.4153 17.784C10.4473 17.5813 10.49 17.3573 10.5433 17.112L11.6313 12.152L10.6393 11.928ZM11.9673 8.328C11.9673 7.96533 12.09 7.68267 12.3353 7.48C12.5806 7.27733 12.89 7.176 13.2633 7.176C13.6686 7.176 13.9886 7.27733 14.2233 7.48C14.4686 7.68267 14.5913 7.96533 14.5913 8.328C14.5913 8.66933 14.4686 8.94133 14.2233 9.144C13.9886 9.34667 13.6686 9.448 13.2633 9.448C12.89 9.448 12.5806 9.34667 12.3353 9.144C12.09 8.94133 11.9673 8.66933 11.9673 8.328Z" fill="#7A0505"/>
</svg>
