<svg width="156" height="36" viewBox="0 0 156 36" fill="none" xmlns="http://www.w3.org/2000/svg">
<path d="M0.407617 -2.38419e-06H15.8076V1.9C14.7076 2.6 13.441 3.08333 12.0076 3.35V22.6C12.0076 24.2333 12.191 25.6 12.5576 26.7C12.9243 27.8 13.4576 28.7 14.1576 29.4C14.8576 30.0667 15.691 30.55 16.6576 30.85C17.6576 31.15 18.7743 31.3 20.0076 31.3C21.1076 31.3 22.1076 31.15 23.0076 30.85C23.941 30.5167 24.741 30 25.4076 29.3C26.1076 28.6 26.641 27.6833 27.0076 26.55C27.3743 25.4167 27.5576 24.0167 27.5576 22.35V3.6C26.791 3.43333 25.991 3.2 25.1576 2.9C24.3576 2.6 23.691 2.26666 23.1576 1.9V-2.38419e-06H35.5576V1.9C34.9576 2.33333 34.291 2.68333 33.5576 2.95C32.8243 3.21667 32.1076 3.43333 31.4076 3.6V22.4C31.4076 26.6667 30.2743 29.9167 28.0076 32.15C25.7743 34.35 22.6076 35.45 18.5076 35.45C14.041 35.45 10.591 34.45 8.15762 32.45C5.72428 30.45 4.50762 27.25 4.50762 22.85V3.35C3.84095 3.25 3.14095 3.08333 2.40762 2.85C1.67428 2.58333 1.00762 2.26666 0.407617 1.9V-2.38419e-06ZM81.2498 35H66.2998V33.1C66.9665 32.7667 67.6165 32.4833 68.2498 32.25C68.8831 32.0167 69.5665 31.8167 70.2998 31.65V10.75L70.5498 4.9H70.1498L68.4998 10.25L58.8498 35H56.5498L46.9498 10.45L45.1498 4.6H44.6998L44.7498 10.95V31.45C45.3831 31.5833 46.0831 31.8 46.8498 32.1C47.6165 32.4 48.3331 32.7333 48.9998 33.1V35H36.7998V33.1C37.3331 32.8333 37.9831 32.5167 38.7498 32.15C39.5498 31.7833 40.2998 31.5333 40.9998 31.4V3.35C40.3331 3.21667 39.6165 3.03333 38.8498 2.8C38.1165 2.56667 37.4665 2.26666 36.8998 1.9V-2.38419e-06H50.4498L58.0998 20.35L59.5498 25.15H59.5998L61.0998 20.25L68.8998 -2.38419e-06H81.2998V1.9C80.7331 2.23333 80.1165 2.53333 79.4498 2.8C78.8165 3.03333 78.1665 3.21667 77.4998 3.35V31.7C78.1998 31.8333 78.8665 32.0333 79.4998 32.3C80.1665 32.5667 80.7498 32.8333 81.2498 33.1V35ZM105.784 27.75C105.784 28.4833 105.784 29.1167 105.784 29.65C105.818 30.1833 105.868 30.75 105.934 31.35L109.384 31.85V33.6C108.984 33.8 108.434 34 107.734 34.2C107.068 34.4 106.351 34.6 105.584 34.8C104.851 34.9667 104.118 35.1 103.384 35.2C102.651 35.3333 102.001 35.4333 101.434 35.5H99.7342C99.4008 34.7333 99.2008 33.9667 99.1342 33.2C99.0675 32.4333 99.0175 31.5 98.9842 30.4H98.7342C98.5675 31.0667 98.2842 31.7167 97.8842 32.35C97.4842 32.95 96.9675 33.5 96.3342 34C95.7342 34.4667 95.0175 34.85 94.1842 35.15C93.3508 35.45 92.4175 35.6 91.3842 35.6C90.2842 35.6 89.2675 35.4333 88.3342 35.1C87.4008 34.7667 86.5842 34.3 85.8842 33.7C85.1842 33.1 84.6342 32.3833 84.2342 31.55C83.8342 30.6833 83.6342 29.7167 83.6342 28.65C83.6342 27.15 83.9175 25.9167 84.4842 24.95C85.0508 23.9833 85.9342 23.2 87.1342 22.6C88.3675 21.9667 89.9342 21.5 91.8342 21.2C93.7675 20.9 96.1008 20.6833 98.8342 20.55C99.1008 17.6833 98.9842 15.5833 98.4842 14.25C97.9842 12.9167 96.9008 12.25 95.2342 12.25C94.2008 12.25 93.2508 12.4167 92.3842 12.75L90.0342 18.75H87.8342C87.5675 18.35 87.3008 17.9 87.0342 17.4C86.8008 16.8667 86.5675 16.3167 86.3342 15.75C86.1342 15.15 85.9508 14.55 85.7842 13.95C85.6508 13.35 85.5508 12.7667 85.4842 12.2C86.7508 11.3333 88.3842 10.65 90.3842 10.15C92.3842 9.65 94.5008 9.4 96.7342 9.4C98.6342 9.4 100.184 9.61667 101.384 10.05C102.584 10.45 103.518 11.0167 104.184 11.75C104.884 12.45 105.368 13.2833 105.634 14.25C105.901 15.2167 106.034 16.25 106.034 17.35C106.034 19.35 105.984 21.1667 105.884 22.8C105.818 24.4 105.784 26.05 105.784 27.75ZM94.5342 31.6C95.2342 31.6 95.8342 31.4667 96.3342 31.2C96.8342 30.9333 97.2508 30.6167 97.5842 30.25C97.9508 29.8833 98.2175 29.4833 98.3842 29.05C98.5842 28.6167 98.7342 28.2333 98.8342 27.9V22.9C97.2675 22.9333 95.9842 23.0333 94.9842 23.2C93.9842 23.3667 93.2008 23.65 92.6342 24.05C92.0675 24.4167 91.6675 24.9 91.4342 25.5C91.2342 26.0667 91.1342 26.7667 91.1342 27.6C91.1342 28.8667 91.4342 29.85 92.0342 30.55C92.6342 31.25 93.4675 31.6 94.5342 31.6ZM110.516 11.2C111.783 10.4 113.116 9.83333 114.516 9.5V5.45C114.716 5.25 115.05 5.06667 115.516 4.9C116.016 4.7 116.533 4.53333 117.066 4.4C117.633 4.23333 118.183 4.08333 118.716 3.95C119.25 3.81667 119.683 3.71667 120.016 3.65H121.716V10H128.316V13.15H121.716V26.1C121.716 28.1667 121.966 29.6 122.466 30.4C123 31.2 123.866 31.6 125.066 31.6C125.666 31.6 126.333 31.5667 127.066 31.5C127.833 31.4 128.533 31.2333 129.166 31L129.516 32.65C129.216 32.95 128.766 33.2667 128.166 33.6C127.6 33.9333 126.933 34.25 126.166 34.55C125.433 34.85 124.616 35.1 123.716 35.3C122.85 35.5 121.933 35.6 120.966 35.6C118.8 35.6 117.183 35.0333 116.116 33.9C115.05 32.7667 114.516 30.9333 114.516 28.4V13.15H110.516V11.2ZM154.387 30.8C154.12 31.3667 153.687 31.95 153.087 32.55C152.52 33.1167 151.804 33.6333 150.937 34.1C150.104 34.5333 149.12 34.8833 147.987 35.15C146.887 35.45 145.687 35.6 144.387 35.6C142.32 35.6 140.487 35.3 138.887 34.7C137.287 34.0667 135.954 33.1833 134.887 32.05C133.82 30.8833 133.004 29.5 132.437 27.9C131.904 26.3 131.637 24.5 131.637 22.5C131.637 18.2333 132.754 14.9833 134.987 12.75C137.22 10.5167 140.32 9.4 144.287 9.4C145.987 9.4 147.57 9.63333 149.037 10.1C150.537 10.5667 151.77 11.3333 152.737 12.4C153.737 13.4667 154.42 14.8667 154.787 16.6C155.187 18.3333 155.17 20.45 154.737 22.95H139.387C139.42 25.5833 140.087 27.6833 141.387 29.25C142.72 30.8167 144.67 31.6 147.237 31.6C148.337 31.6 149.47 31.4333 150.637 31.1C151.837 30.7667 152.77 30.3333 153.437 29.8L154.387 30.8ZM144.087 12.25C143.42 12.25 142.82 12.3667 142.287 12.6C141.787 12.8333 141.337 13.2667 140.937 13.9C140.57 14.5 140.27 15.3333 140.037 16.4C139.804 17.4333 139.637 18.75 139.537 20.35H147.587C147.82 17.75 147.67 15.75 147.137 14.35C146.604 12.95 145.587 12.25 144.087 12.25Z" fill="white" fill-opacity="0.72"/>
</svg>
